<?xml version="1.0" standalone="no"?>
<!DOCTYPE svg PUBLIC "-//W3C//DTD SVG 20010904//EN"
 "http://www.w3.org/TR/2001/REC-SVG-20010904/DTD/svg10.dtd">
<svg version="1.0" xmlns="http://www.w3.org/2000/svg"
 width="266.000000pt" height="190.000000pt" viewBox="0 0 266.000000 190.000000"
 preserveAspectRatio="xMidYMid meet">

<g transform="translate(0.000000,190.000000) scale(0.100000,-0.100000)"
fill="#000000" stroke="none">
<path d="M992 1701 c16 -28 33 -69 35 -93 4 -34 11 -46 30 -55 19 -9 22 -9 14
1 -13 15 -10 136 4 136 11 0 -95 59 -107 60 -4 0 7 -22 24 -49z"/>
<path d="M1674 1737 c-15 -9 -19 -18 -15 -31 6 -17 9 -16 25 9 21 32 18 37
-10 22z"/>
<path d="M1602 1650 c0 -14 2 -19 5 -12 2 6 2 18 0 25 -3 6 -5 1 -5 -13z"/>
<path d="M1631 1614 c0 -11 3 -14 6 -6 3 7 2 16 -1 19 -3 4 -6 -2 -5 -13z"/>
<path d="M1213 1512 c-64 -23 -125 -65 -164 -111 -36 -43 -82 -138 -76 -154 3
-7 8 -3 11 8 35 104 122 201 213 236 61 23 172 31 228 16 24 -7 28 -6 18 4
-22 22 -170 22 -230 1z"/>
<path d="M990 1480 c-19 -10 -46 -31 -60 -47 l-25 -28 25 21 c25 21 60 22 60
1 0 -6 9 6 20 28 11 21 19 40 17 41 -1 1 -18 -6 -37 -16z"/>
<path d="M1089 1483 c-13 -16 -12 -17 4 -4 9 7 17 15 17 17 0 8 -8 3 -21 -13z"/>
<path d="M1592 1480 c0 -14 2 -19 5 -12 2 6 2 18 0 25 -3 6 -5 1 -5 -13z"/>
<path d="M1652 1464 c17 -29 23 -32 40 -23 24 13 11 33 -32 47 l-28 10 20 -34z"/>
<path d="M1745 1410 c10 -11 20 -20 23 -20 3 0 -3 9 -13 20 -10 11 -20 20 -23
20 -3 0 3 -9 13 -20z"/>
<path d="M981 1394 c0 -11 3 -14 6 -6 3 7 2 16 -1 19 -3 4 -6 -2 -5 -13z"/>
<path d="M1681 1374 c0 -11 3 -14 6 -6 3 7 2 16 -1 19 -3 4 -6 -2 -5 -13z"/>
<path d="M1440 1344 c0 -21 4 -45 9 -53 5 -8 7 5 4 35 -7 61 -13 70 -13 18z"/>
<path d="M1212 1348 c-31 -35 -36 -71 -16 -115 15 -30 19 -34 22 -18 2 11 9
26 16 34 8 11 8 13 0 8 -18 -11 -12 85 6 100 8 7 10 13 4 13 -6 0 -20 -10 -32
-22z"/>
<path d="M1445 1150 c10 -11 20 -20 23 -20 3 0 -3 9 -13 20 -10 11 -20 20 -23
20 -3 0 3 -9 13 -20z"/>
<path d="M1687 1099 c-13 -101 -101 -215 -205 -266 -50 -24 -69 -28 -147 -28
-64 0 -103 5 -134 18 -24 10 -45 16 -48 14 -2 -2 24 -14 57 -27 85 -32 202
-26 286 15 107 52 188 160 201 266 3 27 4 49 1 49 -3 0 -8 -18 -11 -41z"/>
<path d="M1471 1120 c-8 -16 -7 -110 1 -102 5 5 7 31 5 58 -2 27 -5 47 -6 44z"/>
<path d="M786 1060 c4 -19 10 -64 14 -100 4 -40 9 -59 14 -49 10 22 3 149 -9
148 -5 0 -13 8 -17 18 -5 10 -6 3 -2 -17z"/>
<path d="M1849 1035 c-3 -33 -2 -76 1 -95 5 -29 7 -23 14 38 4 39 11 72 16 72
5 0 7 7 4 15 -4 8 -10 13 -14 10 -5 -3 -10 1 -13 7 -2 7 -6 -14 -8 -47z"/>
<path d="M1181 1050 c0 -38 16 -125 18 -99 0 9 7 22 15 28 11 10 17 8 25 -6 6
-10 11 -13 11 -6 0 6 -5 15 -10 18 -6 4 -21 27 -35 53 l-24 47 0 -35z"/>
<path d="M1441 1064 c0 -11 3 -14 6 -6 3 7 2 16 -1 19 -3 4 -6 -2 -5 -13z"/>
<path d="M1441 1014 c0 -11 3 -14 6 -6 3 7 2 16 -1 19 -3 4 -6 -2 -5 -13z"/>
<path d="M285 851 l-40 -19 55 0 c30 0 47 2 38 5 -27 7 -21 21 10 26 26 4 26
4 2 5 -14 1 -43 -7 -65 -17z"/>
<path d="M2325 861 c28 -6 29 -7 10 -19 -17 -10 -14 -11 28 -12 26 0 47 2 47
6 0 9 -69 34 -92 33 -18 -1 -17 -3 7 -8z"/>
<path d="M378 823 c7 -3 16 -2 19 1 4 3 -2 6 -13 5 -11 0 -14 -3 -6 -6z"/>
<path d="M1480 760 c-35 -31 -57 -39 -44 -18 4 6 -4 3 -18 -8 -19 -14 -22 -20
-11 -22 29 -7 61 8 87 43 33 42 31 43 -14 5z"/>
<path d="M405 760 c3 -5 11 -10 16 -10 6 0 7 5 4 10 -3 6 -11 10 -16 10 -6 0
-7 -4 -4 -10z"/>
<path d="M2235 760 c-3 -5 -2 -10 4 -10 5 0 13 5 16 10 3 6 2 10 -4 10 -5 0
-13 -4 -16 -10z"/>
<path d="M1180 753 c0 -19 38 -44 62 -41 l23 3 -23 25 c-15 16 -21 18 -16 7 8
-22 -4 -22 -28 0 -10 9 -18 12 -18 6z"/>
<path d="M2284 745 c1 -8 8 -21 14 -27 7 -7 12 -23 12 -37 1 -23 2 -24 11 -8
14 24 4 64 -20 77 -15 8 -19 6 -17 -5z"/>
<path d="M352 738 c-15 -15 -16 -65 -2 -73 5 -3 7 0 4 9 -3 8 2 26 11 39 17
26 7 45 -13 25z"/>
<path d="M1120 711 c0 -31 -6 -44 -26 -60 -15 -12 -35 -21 -45 -21 -10 0 -21
-5 -25 -11 -4 -8 1 -9 17 -4 57 18 69 26 84 54 17 34 20 81 5 81 -5 0 -10 -18
-10 -39z"/>
<path d="M1531 722 c-2 -54 22 -88 71 -100 23 -6 44 -9 46 -7 2 2 -14 9 -37
15 -44 11 -60 32 -72 90 l-7 35 -1 -33z"/>
<path d="M1486 716 c-14 -23 -14 -26 0 -40 8 -9 16 -16 17 -16 1 0 2 18 2 40
0 22 -1 40 -1 40 -1 0 -9 -11 -18 -24z"/>
<path d="M1165 700 c-1 -24 3 -29 17 -24 13 4 16 1 12 -10 -3 -9 -9 -16 -13
-16 -4 0 -15 -6 -25 -13 -17 -13 -17 -14 -2 -20 12 -5 22 2 35 23 16 27 20 29
31 15 7 -8 27 -15 44 -15 l31 1 -25 14 c-16 8 -27 10 -31 3 -3 -5 -21 9 -40
31 l-34 41 0 -30z"/>
<path d="M476 703 c-6 -14 -5 -15 5 -6 7 7 10 15 7 18 -3 3 -9 -2 -12 -12z"/>
<path d="M1303 696 c5 -15 37 -20 49 -8 6 6 -1 11 -22 14 -19 3 -29 1 -27 -6z"/>
<path d="M2170 706 c0 -2 7 -9 15 -16 13 -11 14 -10 9 4 -5 14 -24 23 -24 12z"/>
<path d="M1449 663 c-13 -16 -12 -17 4 -4 16 13 21 21 13 21 -2 0 -10 -8 -17
-17z"/>
<path d="M1400 655 l-25 -14 26 -1 c16 0 26 5 26 15 0 8 -1 15 -1 15 -1 -1
-12 -7 -26 -15z"/>
<path d="M1470 653 c1 -21 26 -40 45 -33 18 6 17 9 -13 24 -17 9 -32 13 -32 9z"/>
<path d="M580 625 c-11 -13 -10 -14 4 -9 9 3 16 10 16 15 0 13 -6 11 -20 -6z"/>
<path d="M2070 631 c0 -5 7 -12 16 -15 14 -5 15 -4 4 9 -14 17 -20 19 -20 6z"/>
<path d="M1135 589 c-4 -6 -5 -12 -2 -15 2 -3 7 2 10 11 7 17 1 20 -8 4z"/>
<path d="M1510 596 c0 -2 8 -10 18 -17 15 -13 16 -12 3 4 -13 16 -21 21 -21
13z"/>
<path d="M705 520 c-27 -7 -28 -8 -5 -8 14 0 34 3 45 8 25 11 2 11 -40 0z"/>
<path d="M1953 513 c9 -2 23 -2 30 0 6 3 -1 5 -18 5 -16 0 -22 -2 -12 -5z"/>
<path d="M137 374 c-15 -15 -6 -61 18 -96 25 -37 34 -88 15 -88 -5 0 -10 7
-10 15 0 8 -7 15 -16 15 -10 0 -14 -7 -12 -22 2 -19 9 -23 38 -23 32 0 35 2
38 33 2 24 -5 46 -22 73 -26 39 -34 79 -16 79 6 0 10 -7 10 -15 0 -8 7 -15 16
-15 10 0 14 7 12 23 -2 16 -11 23 -33 25 -17 2 -34 0 -38 -4z"/>
<path d="M256 353 c-3 -16 -8 -50 -11 -78 -4 -27 -9 -62 -11 -77 -4 -21 -2
-28 10 -28 9 0 16 8 16 20 0 11 7 20 15 20 8 0 15 -9 15 -20 0 -11 7 -20 15
-20 18 0 18 8 4 122 -10 74 -15 88 -30 88 -11 0 -19 -10 -23 -27z m33 -95 c1
-16 -3 -28 -9 -28 -6 0 -10 24 -9 53 1 41 3 47 9 27 4 -14 8 -37 9 -52z"/>
<path d="M340 275 c0 -87 3 -105 15 -105 11 0 15 12 15 46 0 59 24 55 28 -4 6
-81 21 -41 21 55 -1 104 -4 113 -51 113 l-28 0 0 -105z m55 45 c0 -18 -6 -35
-12 -37 -9 -3 -13 8 -13 37 0 29 4 40 13 38 6 -3 12 -20 12 -38z"/>
<path d="M440 275 c0 -104 0 -105 24 -105 53 0 56 5 56 105 0 100 -3 105 -56
105 -24 0 -24 -1 -24 -105z m55 0 c0 -54 -4 -80 -12 -82 -10 -4 -13 17 -13 82
0 65 3 86 13 83 8 -3 12 -29 12 -83z"/>
<path d="M565 348 c-9 -58 -25 -163 -25 -170 0 -5 7 -8 15 -8 8 0 15 9 15 20
0 11 7 20 15 20 8 0 15 -9 15 -20 0 -11 7 -20 15 -20 18 0 18 8 4 122 -10 74
-14 88 -30 88 -13 0 -20 -10 -24 -32z m34 -95 c0 -13 -3 -23 -9 -23 -6 0 -9
23 -9 53 1 44 2 48 9 22 4 -16 8 -40 9 -52z"/>
<path d="M650 275 c0 -87 3 -105 15 -105 11 0 15 12 15 46 0 59 24 55 28 -4 6
-81 21 -41 21 55 -1 104 -4 113 -51 113 l-28 0 0 -105z m55 45 c0 -18 -6 -35
-12 -37 -9 -3 -13 8 -13 37 0 29 4 40 13 38 6 -3 12 -20 12 -38z"/>
<path d="M814 367 c-3 -8 -4 -54 -2 -103 l3 -89 38 -1 37 -1 0 53 c0 46 -3 54
-19 54 -16 0 -18 -6 -13 -46 4 -37 2 -46 -9 -42 -19 6 -20 159 -1 166 7 2 12
-5 12 -17 0 -12 4 -21 9 -21 17 0 22 19 11 40 -12 23 -58 28 -66 7z"/>
<path d="M910 275 c0 -87 3 -105 15 -105 11 0 15 12 15 46 0 59 24 55 28 -4 6
-81 21 -41 21 55 -1 104 -4 113 -51 113 l-28 0 0 -105z m55 45 c0 -18 -6 -35
-12 -37 -9 -3 -13 8 -13 37 0 29 4 40 13 38 6 -3 12 -20 12 -38z"/>
<path d="M1024 367 c-3 -8 -4 -54 -2 -103 l3 -89 29 -3 c16 -2 32 2 37 10 13
21 11 172 -3 186 -16 16 -57 15 -64 -1z m46 -93 c0 -64 -3 -85 -12 -82 -8 3
-14 29 -16 73 -3 72 1 95 18 95 6 0 10 -34 10 -86z"/>
<path d="M1122 278 l3 -103 35 0 35 0 3 103 c2 86 0 102 -13 102 -12 0 -15
-16 -15 -95 0 -57 -4 -95 -10 -95 -6 0 -10 38 -10 95 0 79 -3 95 -15 95 -13 0
-15 -16 -13 -102z"/>
<path d="M1220 275 c0 -87 3 -105 15 -105 11 0 15 12 15 44 0 39 3 45 23 48
19 3 22 10 25 52 4 54 -5 66 -50 66 l-28 0 0 -105z m50 45 c0 -22 -4 -40 -10
-40 -5 0 -10 18 -10 40 0 22 5 40 10 40 6 0 10 -18 10 -40z"/>
<path d="M1374 367 c-3 -8 -4 -54 -2 -103 3 -84 4 -89 26 -92 42 -6 52 14 52
102 0 50 -5 87 -12 94 -16 16 -57 15 -64 -1z m46 -93 c0 -64 -3 -85 -12 -82
-8 3 -14 29 -16 73 -3 72 1 95 18 95 6 0 10 -34 10 -86z"/>
<path d="M1470 275 c0 -87 3 -105 15 -105 11 0 15 12 15 45 0 38 4 47 23 55
l22 9 -22 7 c-18 5 -23 14 -23 40 0 27 4 34 20 34 11 0 20 5 20 10 0 6 -16 10
-35 10 l-35 0 0 -105z"/>
<path d="M1615 367 c-3 -7 -5 -54 -3 -103 l3 -89 30 0 c25 0 30 4 33 28 4 32
-13 37 -21 6 -12 -44 -27 -6 -27 66 0 72 15 110 27 66 8 -31 25 -26 21 7 -2
21 -9 28 -31 30 -16 2 -29 -2 -32 -11z"/>
<path d="M1710 361 c-5 -11 -10 -50 -10 -86 0 -78 12 -105 45 -105 33 0 45 27
45 105 0 36 -5 75 -10 86 -14 25 -56 25 -70 0z m50 -87 c0 -64 -3 -85 -12 -82
-8 3 -14 29 -16 73 -3 72 1 95 18 95 6 0 10 -34 10 -86z"/>
<path d="M1810 275 c0 -87 3 -105 15 -105 12 0 15 14 16 63 1 60 1 61 10 22 5
-22 11 -50 14 -63 8 -35 22 -17 30 38 10 74 28 75 19 1 -6 -53 -4 -61 10 -61
14 0 16 15 16 106 0 94 -2 105 -17 102 -12 -2 -21 -21 -30 -67 -7 -36 -15 -66
-17 -68 -2 -3 -10 28 -17 66 -10 58 -16 71 -31 71 -16 0 -18 -10 -18 -105z"/>
<path d="M1970 275 c0 -59 4 -105 9 -105 6 0 11 19 13 42 2 34 7 44 23 47 27
5 35 19 35 62 0 42 -15 59 -52 59 l-28 0 0 -105z m50 39 c0 -24 -5 -34 -15
-34 -10 0 -15 10 -15 33 0 19 3 37 6 40 13 13 24 -5 24 -39z"/>
<path d="M2075 368 c-4 -16 -25 -164 -25 -183 0 -8 7 -15 15 -15 8 0 15 9 15
20 0 11 7 20 15 20 8 0 15 -9 15 -20 0 -11 7 -20 15 -20 8 0 15 5 15 11 0 14
-19 148 -26 177 -5 23 -32 30 -39 10z m27 -90 c5 -38 2 -48 -9 -48 -12 0 -14
7 -9 31 3 17 6 41 6 52 0 35 7 14 12 -35z"/>
<path d="M2160 276 c0 -82 3 -106 13 -106 10 0 13 14 9 55 -2 30 -2 55 1 55 3
0 13 -25 22 -55 8 -30 20 -55 25 -55 6 0 10 44 10 105 0 63 -4 105 -10 105 -5
0 -10 -26 -10 -57 0 -65 -7 -64 -24 3 -6 26 -17 49 -24 52 -9 3 -12 -24 -12
-102z"/>
<path d="M2270 275 c0 -63 4 -105 10 -105 6 0 10 42 10 105 0 63 -4 105 -10
105 -6 0 -10 -42 -10 -105z"/>
<path d="M2320 275 l0 -105 30 0 c34 0 40 15 10 23 -15 4 -20 14 -20 41 0 29
4 36 20 36 11 0 20 5 20 10 0 6 -9 10 -20 10 -16 0 -20 7 -20 31 0 22 5 32 20
36 30 8 24 23 -10 23 l-30 0 0 -105z"/>
<path d="M2407 373 c-15 -14 -6 -60 18 -95 25 -37 34 -88 15 -88 -5 0 -10 7
-10 15 0 8 -7 15 -16 15 -10 0 -14 -7 -12 -22 2 -19 9 -23 38 -23 32 0 35 2
38 33 2 24 -5 46 -22 73 -26 39 -34 79 -16 79 6 0 10 -7 10 -15 0 -8 7 -15 15
-15 18 0 20 21 3 38 -13 13 -50 16 -61 5z"/>
</g>
</svg>
